<svg xmlns="http://www.w3.org/2000/svg" style="display: none;">
    <!-- Logo Icon -->
    <symbol id="logo" viewBox="0 0 40 40">
        <path d="M20 5L5 15v10l15 10 15-10V15L20 5zm0 3.66L31 17v6l-11 7.34L9 23v-6l11-8.34z"/>
        <path d="M20 15c-2.76 0-5 2.24-5 5s2.24 5 5 5 5-2.24 5-5-2.24-5-5-5zm0 8c-1.66 0-3-1.34-3-3s1.34-3 3-3 3 1.34 3 3-1.34 3-3 3z"/>
    </symbol>

    <!-- Handmade/Craft Icon -->
    <symbol id="handmade" viewBox="0 0 32 32">
        <path d="M8 12h16M12 8v16M20 8v16M8 20h16M16 4v24" stroke="currentColor" stroke-width="2" stroke-linecap="round" fill="none"/>
        <circle cx="16" cy="16" r="3" fill="currentColor"/>
    </symbol>

    <!-- Veteran/Shield Icon -->
    <symbol id="veteran" viewBox="0 0 32 32">
        <path d="M16 4L4 10v8c0 7.5 5.2 14.5 12 16 6.8-1.5 12-8.5 12-16v-8l-12-6z" fill="none" stroke="currentColor" stroke-width="2"/>
        <path d="M16 10l2 6h6l-5 4 2 6-5-4-5 4 2-6-5-4h6l2-6z" fill="currentColor"/>
    </symbol>

    <!-- Location Icon -->
    <symbol id="location" viewBox="0 0 32 32">
        <path d="M16 4C11.58 4 8 7.58 8 12c0 5.25 8 16 8 16s8-10.75 8-16c0-4.42-3.58-8-8-8zm0 11c-1.66 0-3-1.34-3-3s1.34-3 3-3 3 1.34 3 3-1.34 3-3 3z" fill="currentColor"/>
    </symbol>

    <!-- Star Icon -->
    <symbol id="star" viewBox="0 0 20 20">
        <path d="M10 1l2.5 6.5L19 8.5l-5.5 4.5 1.5 7-5-3.5-5 3.5 1.5-7L1 8.5l6.5-1L10 1z" fill="currentColor"/>
    </symbol>

    <!-- Custom/Wrench Icon -->
    <symbol id="custom" viewBox="0 0 24 24">
        <path d="M22.7 19l-9.1-9.1c.9-2.3.4-5-1.5-6.9-2-2-5-2.4-7.4-1.3L9 6 6 9 1.6 4.7C.4 7.1.9 10.1 2.9 12.1c1.9 1.9 4.6 2.4 6.9 1.5l9.1 9.1c.4.4 1 .4 1.4 0l2.3-2.3c.5-.4.5-1.1.1-1.4z" fill="currentColor"/>
    </symbol>

    <!-- Truck/Delivery Icon -->
    <symbol id="truck" viewBox="0 0 20 20">
        <path d="M1 4h11v9H1V4zm12 0h3l3 4v5h-6V4zm-6 11a2 2 0 104 0 2 2 0 00-4 0zm8 0a2 2 0 104 0 2 2 0 00-4 0z" fill="currentColor"/>
    </symbol>

    <!-- Quality/Check Circle Icon -->
    <symbol id="quality" viewBox="0 0 24 24">
        <path d="M12 2C6.48 2 2 6.48 2 12s4.48 10 10 10 10-4.48 10-10S17.52 2 12 2zm-2 15l-5-5 1.41-1.41L10 14.17l7.59-7.59L19 8l-9 9z" fill="currentColor"/>
    </symbol>

    <!-- Cart Icon -->
    <symbol id="cart" viewBox="0 0 24 24">
        <path d="M7 18c-1.1 0-1.99.9-1.99 2S5.9 22 7 22s2-.9 2-2-.9-2-2-2zM1 2v2h2l3.6 7.59-1.35 2.45c-.16.28-.25.61-.25.96 0 1.1.9 2 2 2h12v-2H7.42c-.14 0-.25-.11-.25-.25l.03-.12.9-1.63h7.45c.75 0 1.41-.41 1.75-1.03l3.58-6.49c.08-.14.12-.31.12-.48 0-.55-.45-1-1-1H5.21l-.94-2H1zm16 16c-1.1 0-1.99.9-1.99 2s.89 2 1.99 2 2-.9 2-2-.9-2-2-2z" fill="currentColor"/>
    </symbol>

    <!-- Email Icon -->
    <symbol id="email" viewBox="0 0 32 32">
        <path d="M4 8l12 8 12-8v-2l-12 8-12-8v2zm0 4v12h24V12l-12 8-12-8z" fill="currentColor"/>
    </symbol>

    <!-- Clock Icon -->
    <symbol id="clock" viewBox="0 0 32 32">
        <circle cx="16" cy="16" r="12" fill="none" stroke="currentColor" stroke-width="2"/>
        <path d="M16 8v8l6 4" fill="none" stroke="currentColor" stroke-width="2" stroke-linecap="round"/>
    </symbol>

    <!-- Facebook Icon -->
    <symbol id="facebook" viewBox="0 0 24 24">
        <path d="M22 12c0-5.52-4.48-10-10-10S2 6.48 2 12c0 4.84 3.44 8.87 8 9.8V15H8v-3h2V9.5C10 7.57 11.57 6 13.5 6H16v3h-2c-.55 0-1 .45-1 1v2h3v3h-3v6.95c5.05-.5 9-4.76 9-9.95z" fill="currentColor"/>
    </symbol>

    <!-- Instagram Icon -->
    <symbol id="instagram" viewBox="0 0 24 24">
        <rect x="2" y="2" width="20" height="20" rx="5" ry="5" fill="none" stroke="currentColor" stroke-width="2"/>
        <circle cx="12" cy="12" r="4" fill="none" stroke="currentColor" stroke-width="2"/>
        <circle cx="17.5" cy="6.5" r="1.5" fill="currentColor"/>
    </symbol>

    <!-- Twitter/X Icon -->
    <symbol id="twitter" viewBox="0 0 24 24">
        <path d="M18.244 2.25h3.308l-7.227 8.26 8.502 11.24H16.17l-5.214-6.817L4.99 21.75H1.68l7.73-8.835L1.254 2.25H8.08l4.713 6.231zm-1.161 17.52h1.833L7.084 4.126H5.117z" fill="currentColor"/>
    </symbol>

    <!-- Chevron Left Icon -->
    <symbol id="chevron-left" viewBox="0 0 24 24">
        <path d="M15.41 7.41L14 6l-6 6 6 6 1.41-1.41L10.83 12z" fill="currentColor"/>
    </symbol>

    <!-- Chevron Right Icon -->
    <symbol id="chevron-right" viewBox="0 0 24 24">
        <path d="M10 6L8.59 7.41 13.17 12l-4.58 4.59L10 18l6-6z" fill="currentColor"/>
    </symbol>

    <!-- Chevron Up Icon -->
    <symbol id="chevron-up" viewBox="0 0 24 24">
        <path d="M12 8l-6 6 1.41 1.41L12 10.83l4.59 4.58L18 14z" fill="currentColor"/>
    </symbol>

    <!-- Close Icon -->
    <symbol id="close" viewBox="0 0 24 24">
        <path d="M19 6.41L17.59 5 12 10.59 6.41 5 5 6.41 10.59 12 5 17.59 6.41 19 12 13.41 17.59 19 19 17.59 13.41 12z" fill="currentColor"/>
    </symbol>

    <!-- Check Circle Icon -->
    <symbol id="check-circle" viewBox="0 0 48 48">
        <circle cx="24" cy="24" r="20" fill="none" stroke="currentColor" stroke-width="3"/>
        <path d="M14 24l7 7 13-13" fill="none" stroke="currentColor" stroke-width="3" stroke-linecap="round" stroke-linejoin="round"/>
    </symbol>

    <!-- Menu Icon -->
    <symbol id="menu" viewBox="0 0 24 24">
        <path d="M3 18h18v-2H3v2zm0-5h18v-2H3v2zm0-7v2h18V6H3z" fill="currentColor"/>
    </symbol>
</svg>
